<svg width="104" height="104" viewBox="0 0 104 104" fill="none" xmlns="http://www.w3.org/2000/svg">
<path d="M95.3333 29.25C97.1282 29.25 98.5833 27.7949 98.5833 26C98.5833 24.2051 97.1282 22.75 95.3333 22.75V29.25ZM60.6667 22.75C58.8718 22.75 57.4167 24.2051 57.4167 26C57.4167 27.7949 58.8718 29.25 60.6667 29.25V22.75ZM81.25 8.66666C81.25 6.87175 79.7949 5.41666 78 5.41666C76.2051 5.41666 74.75 6.87175 74.75 8.66666H81.25ZM74.75 43.3333C74.75 45.1282 76.2051 46.5833 78 46.5833C79.7949 46.5833 81.25 45.1282 81.25 43.3333H74.75ZM95.3333 22.75H78V29.25H95.3333V22.75ZM78 22.75H60.6667V29.25H78V22.75ZM74.75 8.66666V26H81.25V8.66666H74.75ZM74.75 26V43.3333H81.25V26H74.75Z" fill="#E8E8E8"/>
<path d="M49.8333 13C30.4272 13 20.7241 13 14.6954 19.0287C8.66665 25.0575 8.66665 34.7605 8.66665 54.1667C8.66665 73.5726 8.66665 83.2758 14.6954 89.3048C20.7241 95.3333 30.4272 95.3333 49.8333 95.3333C69.2393 95.3333 78.9425 95.3333 84.9714 89.3048C91 83.2758 91 73.5726 91 54.1667V52" stroke="#E8E8E8" stroke-width="6.5" stroke-linecap="round"/>
<path d="M8.66665 61.2534C11.3491 60.8639 14.061 60.6715 16.7774 60.6784C28.2691 60.4353 39.4794 64.0159 48.4081 70.7816C56.6886 77.0558 62.507 85.6913 65 95.3334" stroke="#E8E8E8" stroke-width="6.5" stroke-linejoin="round"/>
<path d="M91 73.2169C85.9066 70.6373 80.6381 69.3282 75.3402 69.3338C67.3162 69.3022 59.3732 72.251 52 78" stroke="#E8E8E8" stroke-width="6.5" stroke-linejoin="round"/>
</svg>
