<svg width="98" height="63" viewBox="0 0 98 63" fill="none" xmlns="http://www.w3.org/2000/svg">
<path d="M94.1615 27.1071C94.1615 27.8067 94.3261 28.2868 94.6553 28.5474C94.9982 28.7943 95.5058 28.9178 96.1779 28.9178H97.145V31.5103H94.1615V34.9053C94.1615 35.7009 94.477 36.0987 95.108 36.0987H97.145V39.0205H93.9763C93.0161 39.0205 92.2891 38.7187 91.7953 38.1151C91.3015 37.5116 91.0546 36.6954 91.0546 35.6666V31.5103H88.8735V28.9178H95.3137C94.5867 28.9178 93.9557 28.904 93.4208 28.8766C92.8858 28.8355 92.44 28.7257 92.0834 28.5474C91.7267 28.3554 91.4592 28.0604 91.2809 27.6626C91.1163 27.2648 91.034 26.7024 91.034 25.9754V24.6174H94.1615V27.1071Z" fill="#3D3D3D"/>
<path d="M84.8988 29.1646H87.8412V38.7117H84.8988V34.6583C84.8988 35.5225 84.7548 36.2358 84.4667 36.7982C84.1924 37.3606 83.8563 37.8064 83.4585 38.1356C83.0744 38.4648 82.6698 38.698 82.2446 38.8352C81.833 38.9586 81.4833 39.0203 81.1952 39.0203C80.866 39.0203 80.4613 38.9792 79.9812 38.8969C79.5148 38.8146 79.0553 38.6294 78.6026 38.3413C78.1637 38.0396 77.7865 37.6075 77.471 37.0451C77.1692 36.4689 77.0183 35.7008 77.0183 34.7406V29.1646H79.9606V34.2879C79.9606 34.6034 80.0292 34.8915 80.1664 35.1521C80.3036 35.399 80.4819 35.6116 80.7014 35.7899C80.9346 35.9683 81.1883 36.1054 81.4627 36.2015C81.737 36.2975 82.0114 36.3455 82.2857 36.3455C82.5875 36.3455 82.8893 36.2906 83.191 36.1809C83.5065 36.0711 83.7877 35.9271 84.0346 35.7488C84.2953 35.5568 84.501 35.3373 84.6519 35.0904C84.8165 34.8435 84.8988 34.576 84.8988 34.2879V29.1646Z" fill="#3D3D3D"/>
<path d="M64.2791 33.8559C64.2791 32.0727 64.7935 30.7627 65.8222 29.926C66.8647 29.0755 68.3188 28.6503 70.1843 28.6503C71.1033 28.6503 71.9195 28.7531 72.6328 28.9589C73.3598 29.1509 73.9702 29.4596 74.464 29.8848C74.9579 30.2963 75.3351 30.8313 75.5957 31.4897C75.8563 32.1481 75.9867 32.9369 75.9867 33.8559C75.9867 35.5843 75.4723 36.8806 74.4435 37.7447C73.4147 38.5952 71.995 39.0204 70.1843 39.0204C69.3201 39.0204 68.5245 38.9176 67.7975 38.7118C67.0842 38.4923 66.4669 38.17 65.9457 37.7447C65.4244 37.3058 65.0129 36.764 64.7111 36.1193C64.4231 35.4746 64.2791 34.7201 64.2791 33.8559ZM67.3448 33.8354C67.3448 34.7544 67.5849 35.3991 68.065 35.7695C68.5588 36.1261 69.2652 36.3044 70.1843 36.3044C71.0485 36.3044 71.7206 36.0918 72.2007 35.6666C72.6808 35.2414 72.9209 34.631 72.9209 33.8354C72.9209 33.0123 72.6808 32.4019 72.2007 32.0041C71.7206 31.5926 71.0485 31.3868 70.1843 31.3868C69.3064 31.3868 68.6137 31.5995 68.1061 32.0247C67.5986 32.4499 67.3448 33.0535 67.3448 33.8354Z" fill="#3D3D3D"/>
<path d="M55.6728 24.6174V33.8559L56.1049 32.0453L60.3024 28.7326H64.8908L56.5782 35.7283L61.0842 33.2387C62.3737 33.2387 63.3064 33.5199 63.8825 34.0823C64.4724 34.6447 64.7673 35.598 64.7673 36.9423V39.0205H61.8455V37.3538C61.8455 36.9972 61.825 36.716 61.7838 36.5102C61.7427 36.3045 61.6466 36.1467 61.4958 36.037C61.3586 35.9272 61.1528 35.8587 60.8785 35.8312C60.6179 35.8038 60.2544 35.7901 59.788 35.7901H56.5164L55.6728 36.4485V39.0205H52.5042V24.6174H55.6728Z" fill="#F3A847"/>
<path d="M40.0264 33.9794C40.0264 33.1427 40.1841 32.402 40.4996 31.7572C40.8151 31.0988 41.2403 30.5433 41.7753 30.0906C42.3103 29.6379 42.9344 29.295 43.6477 29.0618C44.3747 28.8286 45.1429 28.712 45.9522 28.712C46.6243 28.712 47.3102 28.7875 48.0098 28.9384C48.7231 29.0893 49.3678 29.3362 49.9439 29.6791C50.5337 30.022 51.0138 30.461 51.3842 30.9959C51.7683 31.5309 51.9672 32.1825 51.9809 32.9506H48.8122C48.7573 32.69 48.6339 32.4705 48.4418 32.2922C48.2498 32.1002 48.0235 31.9424 47.7628 31.819C47.5022 31.6955 47.2279 31.6064 46.9398 31.5515C46.6518 31.4966 46.3706 31.4692 46.0962 31.4692C45.575 31.4692 45.1223 31.5378 44.7382 31.6749C44.3678 31.8121 44.0592 31.9973 43.8123 32.2305C43.5654 32.45 43.3802 32.7174 43.2568 33.0329C43.147 33.3347 43.0922 33.6502 43.0922 33.9794C43.0922 34.3086 43.147 34.631 43.2568 34.9465C43.3665 35.2483 43.538 35.5157 43.7712 35.7489C44.0181 35.9821 44.3267 36.1673 44.6971 36.3045C45.0811 36.4417 45.5338 36.5102 46.0551 36.5102C46.3294 36.5102 46.6106 36.4828 46.8987 36.4279C47.2004 36.3731 47.4816 36.2908 47.7423 36.181C48.0029 36.0576 48.2292 35.9067 48.4213 35.7284C48.6133 35.5363 48.7436 35.31 48.8122 35.0494H51.9809C51.9672 35.8312 51.7683 36.4965 51.3842 37.0452C51.0001 37.5802 50.5131 38.0191 49.9233 38.3621C49.3472 38.6913 48.7162 38.9245 48.0303 39.0616C47.3445 39.2125 46.686 39.288 46.0551 39.288C45.2046 39.288 44.409 39.1782 43.6683 38.9588C42.9413 38.7256 42.3034 38.3895 41.7547 37.9505C41.2198 37.4979 40.7945 36.9423 40.479 36.2839C40.1773 35.6118 40.0264 34.8436 40.0264 33.9794Z" fill="#F3A847"/>
<path d="M33.6465 39.2674C32.7961 39.2674 32.0279 39.1508 31.342 38.9176C30.6562 38.6844 30.0732 38.3483 29.5931 37.9094C29.113 37.4567 28.7426 36.9011 28.482 36.2427C28.2214 35.5843 28.0911 34.8299 28.0911 33.9794C28.0911 32.1687 28.5643 30.8313 29.5108 29.9671C30.471 29.0892 31.8221 28.6503 33.5642 28.6503C35.3337 28.6503 36.7123 29.1029 37.6999 30.0083C38.7013 30.8999 39.202 32.2304 39.202 34V34.7818L30.9305 34.8024C30.9305 35.1316 31.006 35.4197 31.1569 35.6666C31.3215 35.9135 31.5341 36.1193 31.7947 36.2839C32.0553 36.4348 32.3502 36.5514 32.6795 36.6337C33.0087 36.716 33.3447 36.7571 33.6877 36.7571C34.3872 36.7571 34.9496 36.6542 35.3749 36.4485C35.8001 36.2427 36.0539 35.9684 36.1362 35.6254H39.0374C38.7905 36.9149 38.2075 37.8476 37.2884 38.4237C36.3694 38.9862 35.1554 39.2674 33.6465 39.2674ZM30.9305 32.93L36.1979 32.9712C36.1979 32.6694 36.1156 32.4088 35.951 32.1893C35.7864 31.9561 35.5738 31.7641 35.3132 31.6132C35.0525 31.4623 34.7645 31.3525 34.449 31.284C34.1472 31.2017 33.8591 31.1605 33.5848 31.1605C33.283 31.1605 32.9744 31.1948 32.6589 31.2634C32.3434 31.332 32.0553 31.4417 31.7947 31.5926C31.5341 31.7298 31.3215 31.915 31.1569 32.1481C31.006 32.3676 30.9305 32.6282 30.9305 32.93Z" fill="#F3A847"/>
<path d="M18.9615 39.0205H15.834V24.6174H18.9615V33.4856C18.9615 32.7037 19.0712 32.011 19.2907 31.4074C19.5102 30.7902 19.7982 30.2758 20.1549 29.8643C20.5115 29.439 20.9093 29.1167 21.3483 28.8972C21.801 28.6777 22.2605 28.568 22.7269 28.568C23.4127 28.568 24.0231 28.6846 24.5581 28.9178C25.0931 29.151 25.5457 29.487 25.9161 29.926C26.2865 30.3512 26.5677 30.8656 26.7597 31.4692C26.9517 32.0727 27.0478 32.738 27.0478 33.465V39.0205H23.9203V33.5062C23.9203 33.2181 23.8654 32.9369 23.7556 32.6626C23.6459 32.3882 23.4882 32.1413 23.2824 31.9218C23.0904 31.7023 22.864 31.524 22.6034 31.3869C22.3428 31.2497 22.0616 31.1811 21.7598 31.1811C21.3483 31.1811 20.9711 31.2428 20.6281 31.3663C20.2852 31.4897 19.9903 31.6612 19.7434 31.8807C19.4965 32.0864 19.3044 32.3333 19.1673 32.6214C19.0301 32.8957 18.9615 33.1838 18.9615 33.4856V39.0205Z" fill="#F3A847"/>
<path d="M7.42785 39.0205C6.26189 39.0205 5.21938 38.8627 4.30033 38.5472C3.38128 38.218 2.5994 37.7448 1.9547 37.1275C1.32371 36.5102 0.836747 35.7558 0.493818 34.8642C0.164606 33.9725 0 32.9643 0 31.8395C0 30.7147 0.178323 29.7065 0.53497 28.8149C0.891616 27.9233 1.39915 27.1688 2.05757 26.5516C2.716 25.9206 3.50474 25.4405 4.42379 25.1113C5.35655 24.782 6.39906 24.6174 7.5513 24.6174C8.41548 24.6174 9.25223 24.7135 10.0615 24.9055C10.8846 25.0838 11.6253 25.3787 12.2837 25.7902C12.9421 26.2018 13.4908 26.7367 13.9298 27.3952C14.3824 28.0399 14.6705 28.8217 14.794 29.7408H11.5636C11.4538 29.3567 11.2481 29.0275 10.9463 28.7532C10.6582 28.4788 10.3153 28.2525 9.91751 28.0742C9.53343 27.8958 9.12877 27.7655 8.70354 27.6832C8.27831 27.6009 7.87365 27.5598 7.48957 27.5598C6.06299 27.5598 4.99305 27.937 4.27976 28.6914C3.58018 29.4322 3.23039 30.4747 3.23039 31.8189C3.23039 33.1495 3.58704 34.192 4.30033 34.9465C5.01362 35.7009 6.0767 36.0781 7.48957 36.0781C7.87365 36.0781 8.28517 36.037 8.72412 35.9547C9.16307 35.8587 9.57458 35.7215 9.95866 35.5432C10.3565 35.3511 10.7062 35.1179 11.008 34.8436C11.3235 34.5692 11.5361 34.24 11.6459 33.8559H14.8145C14.6637 34.775 14.355 35.5637 13.8886 36.2222C13.436 36.8669 12.8736 37.4018 12.2014 37.8271C11.5293 38.2386 10.7817 38.5404 9.95866 38.7324C9.13563 38.9244 8.29203 39.0205 7.42785 39.0205Z" fill="#F3A847"/>
<path d="M42.5505 4.11509V8.08621C42.7151 7.13972 42.9689 6.38528 43.3118 5.82287C43.6548 5.26047 44.0251 4.83524 44.4229 4.54718C44.8207 4.2454 45.2254 4.05336 45.6369 3.97106C46.0484 3.87504 46.4051 3.82703 46.7068 3.82703C47.571 3.82703 48.298 3.95734 48.8879 4.21797C49.4914 4.47859 49.9784 4.84896 50.3488 5.32906C50.7191 5.79544 50.9866 6.3647 51.1512 7.03684C51.3158 7.69527 51.3981 8.42914 51.3981 9.23845C51.3981 9.97918 51.3158 10.6719 51.1512 11.3166C50.9866 11.9613 50.726 12.5237 50.3693 13.0038C50.0264 13.4702 49.5737 13.8406 49.0113 14.1149C48.4489 14.3755 47.7631 14.5058 46.9537 14.5058C46.652 14.5058 46.2885 14.4647 45.8632 14.3824C45.438 14.2864 45.0059 14.0943 44.567 13.8063C44.1417 13.5182 43.7439 13.093 43.3736 12.5306C43.0032 11.9682 42.7289 11.2137 42.5505 10.2672V28.8295L39.4436 18.5181V4.11509H42.5505ZM42.5711 9.23845C42.5711 9.64996 42.6466 10.0135 42.7974 10.329C42.9483 10.6307 43.1472 10.8845 43.3941 11.0903C43.6548 11.296 43.9565 11.4538 44.2995 11.5635C44.6561 11.6595 45.0402 11.7075 45.4517 11.7075C46.261 11.7075 46.9332 11.5018 47.4681 11.0903C48.0031 10.6788 48.2706 10.0615 48.2706 9.23845C48.2706 8.37427 48.0168 7.72956 47.5093 7.30433C47.0018 6.8791 46.3159 6.66648 45.4517 6.66648C44.6013 6.66648 43.9085 6.8791 43.3736 7.30433C42.8386 7.72956 42.5711 8.37427 42.5711 9.23845Z" fill="#3D3D3D"/>
<path d="M31.0002 14.6707C30.4926 14.6707 29.9919 14.6021 29.4981 14.4649C29.018 14.3277 28.5791 14.1288 28.1813 13.8682C27.7972 13.5939 27.4817 13.2578 27.2348 12.86C27.0016 12.4485 26.885 11.9752 26.885 11.4403C26.885 10.9053 27.0153 10.4458 27.2759 10.0617C27.5366 9.67761 27.8726 9.36212 28.2842 9.11521C28.6957 8.8683 29.1483 8.68312 29.6422 8.55967C30.1497 8.42249 30.6367 8.34019 31.103 8.31276L35.3828 8.08642V7.90124C35.3828 7.55831 35.2936 7.29083 35.1153 7.09879C34.937 6.90675 34.7107 6.76272 34.4363 6.6667C34.1757 6.57068 33.8876 6.50895 33.5721 6.48151C33.2703 6.45408 32.9823 6.44036 32.7079 6.44036C32.461 6.44036 32.1798 6.45408 31.8643 6.48151C31.5626 6.50895 31.2676 6.57068 30.9796 6.6667C30.7052 6.749 30.472 6.88617 30.28 7.07821C30.088 7.25653 29.9919 7.50344 29.9919 7.81894H27.1319C27.1319 7.10565 27.2828 6.50895 27.5846 6.02885C27.8864 5.54875 28.2842 5.16467 28.778 4.87661C29.2855 4.58855 29.8685 4.38965 30.5269 4.27991C31.1853 4.15645 31.8712 4.09473 32.5845 4.09473C33.5035 4.09473 34.3197 4.17703 35.033 4.34164C35.76 4.50624 36.3704 4.76687 36.8642 5.12351C37.3718 5.48016 37.7559 5.93969 38.0165 6.50209C38.2771 7.06449 38.4074 7.75035 38.4074 8.55967V14.3826H35.4239V10.7201C35.4239 11.2825 35.3416 11.7763 35.177 12.2016C35.0124 12.6131 34.7998 12.9629 34.5392 13.2509C34.2786 13.539 33.9836 13.779 33.6544 13.9711C33.3389 14.1494 33.0166 14.2934 32.6874 14.4032C32.3582 14.4992 32.0427 14.5678 31.7409 14.6089C31.4528 14.6501 31.2059 14.6707 31.0002 14.6707ZM32.1524 12.4896C32.4679 12.4622 32.8108 12.421 33.1812 12.3662C33.5653 12.3113 33.9219 12.2153 34.2511 12.0781C34.5803 11.9409 34.8547 11.7558 35.0742 11.5226C35.3074 11.2894 35.4239 10.9945 35.4239 10.6378V10.1028L32.5845 10.2469C32.4199 10.2606 32.1936 10.2812 31.9055 10.3086C31.6174 10.3223 31.3294 10.3635 31.0413 10.4321C30.767 10.5006 30.5269 10.6035 30.3212 10.7407C30.1291 10.8779 30.0331 11.0699 30.0331 11.3168C30.0331 11.5363 30.1085 11.7283 30.2594 11.8929C30.4103 12.0438 30.5886 12.1673 30.7944 12.2633C31.0139 12.3456 31.2471 12.4073 31.494 12.4485C31.7409 12.4896 31.9604 12.5034 32.1524 12.4896Z" fill="#3D3D3D"/>
<path d="M17.3747 14.4029H14.2061V4.13561H17.3747V8.49767C17.3747 7.5649 17.5256 6.79674 17.8274 6.19318C18.1292 5.58963 18.4858 5.10953 18.8973 4.75288C19.3226 4.39623 19.7615 4.14933 20.2142 4.01216C20.6806 3.87498 21.0646 3.8064 21.3664 3.8064C21.7231 3.8064 22.1552 3.85441 22.6627 3.95043C23.1702 4.03273 23.6572 4.23163 24.1236 4.54712C24.6037 4.86262 25.0083 5.329 25.3375 5.94627C25.6805 6.54983 25.8519 7.366 25.8519 8.39479V14.4029H22.6833V8.88861C22.6833 8.54568 22.6078 8.23704 22.4569 7.9627C22.306 7.68835 22.114 7.45516 21.8808 7.26312C21.6476 7.07108 21.3801 6.92705 21.0784 6.83103C20.7766 6.72129 20.4817 6.66643 20.1936 6.66643C19.8644 6.66643 19.5283 6.72815 19.1854 6.85161C18.8562 6.96134 18.5544 7.11909 18.2801 7.32485C18.0194 7.53061 17.8 7.77066 17.6216 8.045C17.457 8.30563 17.3747 8.58683 17.3747 8.88861V14.4029Z" fill="#3D3D3D"/>
<path d="M0.205758 4.30033C0.205758 3.40872 0.397798 2.68856 0.781879 2.13988C1.16596 1.57747 1.65978 1.13853 2.26333 0.823031C2.8806 0.507536 3.56646 0.294919 4.32091 0.185182C5.07535 0.0617271 5.82294 0 6.56366 0C7.34554 0 8.1137 0.0480105 8.86815 0.144031C9.63631 0.226334 10.3222 0.418374 10.9257 0.720152C11.5293 1.02193 12.0162 1.45402 12.3866 2.01642C12.757 2.57883 12.9421 3.33327 12.9421 4.27976H9.91751C9.91751 3.85452 9.79406 3.53217 9.54715 3.3127C9.31396 3.09322 9.01904 2.94233 8.66239 2.86003C8.31946 2.76401 7.9491 2.716 7.5513 2.716C7.16722 2.70228 6.82429 2.69542 6.52251 2.69542C6.26189 2.69542 5.93953 2.70228 5.55545 2.716C5.18509 2.716 4.82844 2.76401 4.48551 2.86003C4.14258 2.94233 3.84767 3.08636 3.60076 3.29212C3.36756 3.49788 3.25097 3.7928 3.25097 4.17688C3.25097 4.61583 3.37442 4.96561 3.62133 5.22624C3.86824 5.47315 4.21117 5.61718 4.65012 5.65833L9.506 6.09042C10.6171 6.18644 11.5018 6.58424 12.1603 7.28382C12.8324 7.96967 13.1685 8.86815 13.1685 9.97924C13.1685 10.9532 12.9627 11.735 12.5512 12.3249C12.1397 12.901 11.6047 13.3468 10.9463 13.6623C10.2879 13.9641 9.55401 14.163 8.74469 14.259C7.93538 14.355 7.13979 14.403 6.35791 14.403C5.60346 14.403 4.84902 14.355 4.09457 14.259C3.34013 14.1493 2.65427 13.9435 2.037 13.6417C1.43344 13.3262 0.939626 12.8941 0.555545 12.3455C0.185182 11.783 0 11.0423 0 10.1233H3.02464C3.02464 10.5348 3.14123 10.8503 3.37442 11.0698C3.62133 11.2892 3.91625 11.447 4.25918 11.543C4.60211 11.639 4.96561 11.6939 5.3497 11.7076C5.73378 11.7076 6.0767 11.7076 6.37848 11.7076C6.63911 11.7076 6.98204 11.7076 7.40727 11.7076C7.8325 11.7076 8.24402 11.6665 8.64182 11.5841C9.03961 11.5018 9.38254 11.3647 9.6706 11.1726C9.97238 10.9669 10.1233 10.6651 10.1233 10.2673C10.1233 9.82835 10.0067 9.51286 9.77348 9.32082C9.55401 9.12877 9.24537 8.99846 8.84757 8.92988L3.97112 8.47721C3.395 8.42234 2.87375 8.27831 2.40736 8.04512C1.9547 7.81193 1.56376 7.51701 1.23454 7.16036C0.905333 6.79 0.651565 6.36477 0.473242 5.88466C0.294919 5.39085 0.205758 4.86274 0.205758 4.30033Z" fill="#3D3D3D"/>
<path d="M41.4792 44.0702H48.061C48.5339 44.0702 48.7704 44.0702 48.9435 44.1465C49.7092 44.4841 49.3668 45.3347 49.238 45.946C49.2149 46.0559 49.1396 46.1493 49.034 46.1994C48.5963 46.4071 48.2897 46.8011 48.2093 47.2592L47.7607 49.8132C47.5634 50.937 47.496 52.5429 46.5112 53.3345C45.7887 53.9096 44.7477 53.9096 42.6656 53.9096H41.0496C38.9676 53.9096 37.9265 53.9096 37.204 53.3345C36.2193 52.5429 36.1518 50.937 35.9545 49.8132L35.5059 47.2592C35.4255 46.8011 35.1189 46.4071 34.6812 46.1994C34.5756 46.1493 34.5004 46.0559 34.4772 45.946C34.3484 45.3347 34.006 44.4841 34.7718 44.1465C34.9449 44.0702 35.1813 44.0702 35.6542 44.0702H38.4517" stroke="#3D3D3D" stroke-width="1.13532" stroke-linecap="round"/>
<path d="M43.3713 47.0978H40.3438" stroke="#F3A847" stroke-width="1.13532" stroke-linecap="round" stroke-linejoin="round"/>
<path d="M37.6946 46.3408L40.3437 40.2858M44.1281 40.2858L46.0203 44.0702" stroke="#3D3D3D" stroke-width="1.13532" stroke-linecap="round"/>
</svg>
