<svg width="266" height="172" viewBox="0 0 266 172" fill="none" xmlns="http://www.w3.org/2000/svg">
<path d="M257.077 74.312C257.077 76.216 257.525 77.5227 258.421 78.232C259.355 78.904 260.736 79.24 262.565 79.24H265.197V86.296H257.077V95.536C257.077 97.7014 257.936 98.784 259.653 98.784H265.197V106.736H256.573C253.96 106.736 251.981 105.915 250.637 104.272C249.293 102.629 248.621 100.408 248.621 97.608V86.296H242.685V79.24H260.213C258.235 79.24 256.517 79.2027 255.061 79.128C253.605 79.016 252.392 78.7174 251.421 78.232C250.451 77.7094 249.723 76.9067 249.237 75.824C248.789 74.7413 248.565 73.2107 248.565 71.232V67.536H257.077V74.312Z" fill="white"/>
<path d="M231.868 79.9121H239.876V105.896H231.868V94.8641C231.868 97.2161 231.476 99.1575 230.692 100.688C229.945 102.219 229.03 103.432 227.948 104.328C226.902 105.224 225.801 105.859 224.644 106.232C223.524 106.568 222.572 106.736 221.788 106.736C220.892 106.736 219.79 106.624 218.484 106.4C217.214 106.176 215.964 105.672 214.732 104.888C213.537 104.067 212.51 102.891 211.652 101.36C210.83 99.7921 210.42 97.7014 210.42 95.0881V79.9121H218.428V93.8561C218.428 94.7148 218.614 95.4988 218.988 96.2081C219.361 96.8801 219.846 97.4588 220.444 97.9441C221.078 98.4294 221.769 98.8028 222.516 99.0641C223.262 99.3255 224.009 99.4561 224.756 99.4561C225.577 99.4561 226.398 99.3068 227.22 99.0081C228.078 98.7095 228.844 98.3174 229.516 97.8321C230.225 97.3094 230.785 96.7121 231.196 96.0401C231.644 95.3681 231.868 94.6401 231.868 93.8561V79.9121Z" fill="white"/>
<path d="M175.748 92.68C175.748 87.8266 177.148 84.2613 179.948 81.984C182.785 79.6693 186.742 78.512 191.82 78.512C194.321 78.512 196.542 78.792 198.484 79.352C200.462 79.8746 202.124 80.7146 203.468 81.872C204.812 82.992 205.838 84.448 206.548 86.24C207.257 88.032 207.612 90.1786 207.612 92.68C207.612 97.384 206.212 100.912 203.412 103.264C200.612 105.579 196.748 106.736 191.82 106.736C189.468 106.736 187.302 106.456 185.324 105.896C183.382 105.299 181.702 104.421 180.284 103.264C178.865 102.069 177.745 100.595 176.924 98.84C176.14 97.0853 175.748 95.032 175.748 92.68ZM184.092 92.624C184.092 95.1253 184.745 96.88 186.052 97.888C187.396 98.8586 189.318 99.344 191.82 99.344C194.172 99.344 196.001 98.7653 197.308 97.608C198.614 96.4506 199.268 94.7893 199.268 92.624C199.268 90.384 198.614 88.7226 197.308 87.64C196.001 86.52 194.172 85.96 191.82 85.96C189.43 85.96 187.545 86.5386 186.164 87.696C184.782 88.8533 184.092 90.496 184.092 92.624Z" fill="white"/>
<path d="M152.325 67.536V92.68L153.501 87.752L164.925 78.736H177.413L154.789 97.776L167.053 91C170.562 91 173.101 91.7653 174.669 93.296C176.274 94.8267 177.077 97.4214 177.077 101.08V106.736H169.125V102.2C169.125 101.229 169.069 100.464 168.957 99.904C168.845 99.344 168.584 98.9147 168.173 98.616C167.8 98.3173 167.24 98.1307 166.493 98.056C165.784 97.9813 164.794 97.944 163.525 97.944H154.621L152.325 99.736V106.736H143.701V67.536H152.325Z" fill="#FB822F"/>
<path d="M109.74 93.0159C109.74 90.7386 110.169 88.7226 111.028 86.9679C111.887 85.1759 113.044 83.6639 114.5 82.4319C115.956 81.1999 117.655 80.2666 119.596 79.6319C121.575 78.9973 123.665 78.6799 125.868 78.6799C127.697 78.6799 129.564 78.8853 131.468 79.2959C133.409 79.7066 135.164 80.3786 136.732 81.3119C138.337 82.2453 139.644 83.4399 140.652 84.8959C141.697 86.3519 142.239 88.1253 142.276 90.2159H133.652C133.503 89.5066 133.167 88.9093 132.644 88.4239C132.121 87.9013 131.505 87.4719 130.796 87.1359C130.087 86.7999 129.34 86.5573 128.556 86.4079C127.772 86.2586 127.007 86.1839 126.26 86.1839C124.841 86.1839 123.609 86.3706 122.564 86.7439C121.556 87.1173 120.716 87.6213 120.044 88.2559C119.372 88.8533 118.868 89.5813 118.532 90.4399C118.233 91.2613 118.084 92.1199 118.084 93.0159C118.084 93.9119 118.233 94.7893 118.532 95.6479C118.831 96.4693 119.297 97.1973 119.932 97.8319C120.604 98.4666 121.444 98.9706 122.452 99.3439C123.497 99.7173 124.729 99.9039 126.148 99.9039C126.895 99.9039 127.66 99.8293 128.444 99.6799C129.265 99.5306 130.031 99.3066 130.74 99.0079C131.449 98.6719 132.065 98.2613 132.588 97.7759C133.111 97.2533 133.465 96.6373 133.652 95.9279H142.276C142.239 98.0559 141.697 99.8666 140.652 101.36C139.607 102.816 138.281 104.011 136.676 104.944C135.108 105.84 133.391 106.475 131.524 106.848C129.657 107.259 127.865 107.464 126.148 107.464C123.833 107.464 121.668 107.165 119.652 106.568C117.673 105.933 115.937 105.019 114.444 103.824C112.988 102.592 111.831 101.08 110.972 99.2879C110.151 97.4586 109.74 95.3679 109.74 93.0159Z" fill="#FB822F"/>
<path d="M92.3768 107.408C90.0622 107.408 87.9715 107.091 86.1048 106.456C84.2382 105.821 82.6515 104.907 81.3448 103.712C80.0382 102.48 79.0302 100.968 78.3208 99.176C77.6115 97.384 77.2568 95.3306 77.2568 93.016C77.2568 88.088 78.5448 84.448 81.1208 82.096C83.7342 79.7066 87.4115 78.512 92.1528 78.512C96.9688 78.512 100.721 79.744 103.409 82.208C106.134 84.6346 107.497 88.256 107.497 93.072V95.2L84.9848 95.256C84.9848 96.152 85.1902 96.936 85.6008 97.608C86.0488 98.28 86.6275 98.84 87.3368 99.288C88.0462 99.6986 88.8488 100.016 89.7448 100.24C90.6408 100.464 91.5555 100.576 92.4888 100.576C94.3928 100.576 95.9235 100.296 97.0808 99.736C98.2382 99.176 98.9288 98.4293 99.1528 97.496H107.049C106.377 101.005 104.79 103.544 102.289 105.112C99.7875 106.643 96.4835 107.408 92.3768 107.408ZM84.9848 90.16L99.3208 90.272C99.3208 89.4506 99.0968 88.7413 98.6488 88.144C98.2008 87.5093 97.6222 86.9866 96.9128 86.576C96.2035 86.1653 95.4195 85.8666 94.5608 85.68C93.7395 85.456 92.9555 85.344 92.2088 85.344C91.3875 85.344 90.5475 85.4373 89.6888 85.624C88.8302 85.8106 88.0462 86.1093 87.3368 86.52C86.6275 86.8933 86.0488 87.3973 85.6008 88.032C85.1902 88.6293 84.9848 89.3386 84.9848 90.16Z" fill="#FB822F"/>
<path d="M52.4082 106.736H43.8962V67.536H52.4082V91.672C52.4082 89.544 52.7069 87.6587 53.3042 86.016C53.9016 84.336 54.6856 82.936 55.6562 81.816C56.6269 80.6587 57.7096 79.7813 58.9042 79.184C60.1362 78.5867 61.3869 78.288 62.6562 78.288C64.5229 78.288 66.1842 78.6053 67.6402 79.24C69.0962 79.8747 70.3282 80.7893 71.3362 81.984C72.3442 83.1414 73.1096 84.5413 73.6322 86.184C74.1549 87.8267 74.4162 89.6373 74.4162 91.616V106.736H65.9042V91.728C65.9042 90.944 65.7549 90.1787 65.4562 89.432C65.1576 88.6853 64.7282 88.0133 64.1682 87.416C63.6456 86.8187 63.0296 86.3333 62.3202 85.96C61.6109 85.5867 60.8456 85.4 60.0242 85.4C58.9042 85.4 57.8776 85.568 56.9442 85.904C56.0109 86.24 55.2082 86.7067 54.5362 87.304C53.8642 87.864 53.3416 88.536 52.9682 89.32C52.5949 90.0667 52.4082 90.8507 52.4082 91.672V106.736Z" fill="#FB822F"/>
<path d="M21.0185 106.736C17.8452 106.736 15.0078 106.307 12.5065 105.448C10.0052 104.552 7.87716 103.264 6.12249 101.584C4.40516 99.904 3.07982 97.8507 2.14649 95.424C1.25049 92.9973 0.80249 90.2533 0.80249 87.192C0.80249 84.1307 1.28782 81.3867 2.25849 78.96C3.22916 76.5333 4.61049 74.48 6.40249 72.8C8.19449 71.0827 10.3412 69.776 12.8425 68.88C15.3812 67.984 18.2185 67.536 21.3545 67.536C23.7065 67.536 25.9838 67.7973 28.1865 68.32C30.4265 68.8053 32.4425 69.608 34.2345 70.728C36.0265 71.848 37.5198 73.304 38.7145 75.096C39.9465 76.8507 40.7305 78.9787 41.0665 81.48H32.2745C31.9758 80.4347 31.4158 79.5387 30.5945 78.792C29.8105 78.0453 28.8772 77.4293 27.7945 76.944C26.7492 76.4587 25.6478 76.104 24.4905 75.88C23.3332 75.656 22.2318 75.544 21.1865 75.544C17.3038 75.544 14.3918 76.5707 12.4505 78.624C10.5465 80.64 9.59449 83.4774 9.59449 87.136C9.59449 90.7574 10.5652 93.5947 12.5065 95.648C14.4478 97.7014 17.3412 98.728 21.1865 98.728C22.2318 98.728 23.3518 98.616 24.5465 98.392C25.7412 98.1307 26.8612 97.7573 27.9065 97.272C28.9892 96.7493 29.9412 96.1147 30.7625 95.368C31.6212 94.6213 32.1998 93.7253 32.4985 92.68H41.1225C40.7118 95.1813 39.8718 97.328 38.6025 99.12C37.3705 100.875 35.8398 102.331 34.0105 103.488C32.1812 104.608 30.1465 105.429 27.9065 105.952C25.6665 106.475 23.3705 106.736 21.0185 106.736Z" fill="#FB822F"/>
<path d="M116.61 11.736V22.544C117.058 19.968 117.749 17.9147 118.682 16.384C119.615 14.8534 120.623 13.696 121.706 12.912C122.789 12.0907 123.89 11.568 125.01 11.344C126.13 11.0827 127.101 10.952 127.922 10.952C130.274 10.952 132.253 11.3067 133.858 12.016C135.501 12.7254 136.826 13.7334 137.834 15.04C138.842 16.3094 139.57 17.8587 140.018 19.688C140.466 21.48 140.69 23.4774 140.69 25.68C140.69 27.696 140.466 29.5814 140.018 31.336C139.57 33.0907 138.861 34.6214 137.89 35.928C136.957 37.1974 135.725 38.2054 134.194 38.952C132.663 39.6614 130.797 40.016 128.594 40.016C127.773 40.016 126.783 39.904 125.626 39.68C124.469 39.4187 123.293 38.896 122.098 38.112C120.941 37.328 119.858 36.1707 118.85 34.64C117.842 33.1094 117.095 31.056 116.61 28.48V79L108.154 50.936V11.736H116.61ZM116.666 25.68C116.666 26.8 116.871 27.7894 117.282 28.648C117.693 29.4694 118.234 30.16 118.906 30.72C119.615 31.28 120.437 31.7094 121.37 32.008C122.341 32.2694 123.386 32.4 124.506 32.4C126.709 32.4 128.538 31.84 129.994 30.72C131.45 29.6 132.178 27.92 132.178 25.68C132.178 23.328 131.487 21.5734 130.106 20.416C128.725 19.2587 126.858 18.68 124.506 18.68C122.191 18.68 120.306 19.2587 118.85 20.416C117.394 21.5734 116.666 23.328 116.666 25.68Z" fill="white"/>
<path d="M85.1744 40.4641C83.793 40.4641 82.4304 40.2774 81.0864 39.9041C79.7797 39.5307 78.585 38.9894 77.5024 38.2801C76.457 37.5334 75.5984 36.6187 74.9264 35.5361C74.2917 34.4161 73.9744 33.1281 73.9744 31.6721C73.9744 30.2161 74.329 28.9654 75.0384 27.9201C75.7477 26.8747 76.6624 26.0161 77.7824 25.3441C78.9024 24.6721 80.1344 24.1681 81.4784 23.8321C82.8597 23.4587 84.185 23.2347 85.4544 23.1601L97.1024 22.5441V22.0401C97.1024 21.1067 96.8597 20.3787 96.3744 19.8561C95.889 19.3334 95.273 18.9414 94.5264 18.6801C93.817 18.4187 93.033 18.2507 92.1744 18.1761C91.353 18.1014 90.569 18.0641 89.8224 18.0641C89.1504 18.0641 88.385 18.1014 87.5264 18.1761C86.705 18.2507 85.9024 18.4187 85.1184 18.6801C84.3717 18.9041 83.737 19.2774 83.2144 19.8001C82.6917 20.2854 82.4304 20.9574 82.4304 21.8161H74.6464C74.6464 19.8747 75.057 18.2507 75.8784 16.9441C76.6997 15.6374 77.7824 14.5921 79.1264 13.8081C80.5077 13.0241 82.0944 12.4827 83.8864 12.1841C85.6784 11.8481 87.545 11.6801 89.4864 11.6801C91.9877 11.6801 94.209 11.9041 96.1504 12.3521C98.129 12.8001 99.7904 13.5094 101.134 14.4801C102.516 15.4507 103.561 16.7014 104.27 18.2321C104.98 19.7627 105.334 21.6294 105.334 23.8321V39.6801H97.2144V29.7121C97.2144 31.2427 96.9904 32.5867 96.5424 33.7441C96.0944 34.8641 95.5157 35.8161 94.8064 36.6001C94.097 37.3841 93.2944 38.0374 92.3984 38.5601C91.5397 39.0454 90.6624 39.4374 89.7664 39.7361C88.8704 39.9974 88.0117 40.1841 87.1904 40.2961C86.4064 40.4081 85.7344 40.4641 85.1744 40.4641ZM88.3104 34.5281C89.169 34.4534 90.1024 34.3414 91.1104 34.1921C92.1557 34.0427 93.1264 33.7814 94.0224 33.4081C94.9184 33.0347 95.665 32.5307 96.2624 31.8961C96.897 31.2614 97.2144 30.4587 97.2144 29.4881V28.0321L89.4864 28.4241C89.0384 28.4614 88.4224 28.5174 87.6384 28.5921C86.8544 28.6294 86.0704 28.7414 85.2864 28.9281C84.5397 29.1147 83.8864 29.3947 83.3264 29.7681C82.8037 30.1414 82.5424 30.6641 82.5424 31.3361C82.5424 31.9334 82.7477 32.4561 83.1584 32.9041C83.569 33.3147 84.0544 33.6507 84.6144 33.9121C85.2117 34.1361 85.8464 34.3041 86.5184 34.4161C87.1904 34.5281 87.7877 34.5654 88.3104 34.5281Z" fill="white"/>
<path d="M48.0906 39.736H39.4666V11.792H48.0906V23.664C48.0906 21.1253 48.5012 19.0347 49.3226 17.392C50.1439 15.7493 51.1145 14.4427 52.2346 13.472C53.3919 12.5013 54.5866 11.8293 55.8186 11.456C57.0879 11.0827 58.1332 10.896 58.9546 10.896C59.9252 10.896 61.1012 11.0267 62.4826 11.288C63.8639 11.512 65.1892 12.0533 66.4585 12.912C67.7652 13.7707 68.8666 15.04 69.7626 16.72C70.6959 18.3627 71.1626 20.584 71.1626 23.384V39.736H62.5386V24.728C62.5386 23.7947 62.3332 22.9547 61.9226 22.208C61.5119 21.4613 60.9892 20.8267 60.3546 20.304C59.7199 19.7813 58.9919 19.3893 58.1706 19.128C57.3492 18.8293 56.5466 18.68 55.7626 18.68C54.8666 18.68 53.9519 18.848 53.0186 19.184C52.1226 19.4827 51.3012 19.912 50.5546 20.472C49.8452 21.032 49.2479 21.6853 48.7626 22.432C48.3146 23.1413 48.0906 23.9067 48.0906 24.728V39.736Z" fill="white"/>
<path d="M1.36249 12.24C1.36249 9.81334 1.88516 7.85334 2.93049 6.36001C3.97582 4.82935 5.31982 3.63468 6.96249 2.77601C8.64249 1.91735 10.5092 1.33868 12.5625 1.04001C14.6158 0.70401 16.6505 0.536011 18.6665 0.536011C20.7945 0.536011 22.8852 0.666678 24.9385 0.928013C27.0292 1.15201 28.8958 1.67468 30.5385 2.49601C32.1812 3.31735 33.5065 4.49334 34.5145 6.02401C35.5225 7.55468 36.0265 9.60801 36.0265 12.184H27.7945C27.7945 11.0267 27.4585 10.1493 26.7865 9.55201C26.1518 8.95468 25.3492 8.54401 24.3785 8.32001C23.4452 8.05868 22.4372 7.92801 21.3545 7.92801C20.3092 7.89068 19.3758 7.87201 18.5545 7.87201C17.8452 7.87201 16.9678 7.89068 15.9225 7.92801C14.9145 7.92801 13.9438 8.05868 13.0105 8.32001C12.0772 8.54401 11.2745 8.93601 10.6025 9.49601C9.96782 10.056 9.65049 10.8587 9.65049 11.904C9.65049 13.0987 9.98649 14.0507 10.6585 14.76C11.3305 15.432 12.2638 15.824 13.4585 15.936L26.6745 17.112C29.6985 17.3733 32.1065 18.456 33.8985 20.36C35.7278 22.2267 36.6425 24.672 36.6425 27.696C36.6425 30.3467 36.0825 32.4747 34.9625 34.08C33.8425 35.648 32.3865 36.8614 30.5945 37.72C28.8025 38.5414 26.8052 39.0827 24.6025 39.344C22.3998 39.6054 20.2345 39.736 18.1065 39.736C16.0532 39.736 13.9998 39.6054 11.9465 39.344C9.89316 39.0453 8.02649 38.4854 6.34649 37.664C4.70382 36.8054 3.35982 35.6293 2.31449 34.136C1.30649 32.6054 0.80249 30.5893 0.80249 28.088H9.03449C9.03449 29.208 9.35182 30.0667 9.98649 30.664C10.6585 31.2613 11.4612 31.6907 12.3945 31.952C13.3278 32.2133 14.3172 32.3627 15.3625 32.4C16.4078 32.4 17.3412 32.4 18.1625 32.4C18.8718 32.4 19.8052 32.4 20.9625 32.4C22.1198 32.4 23.2398 32.288 24.3225 32.064C25.4052 31.84 26.3385 31.4667 27.1225 30.944C27.9438 30.384 28.3545 29.5627 28.3545 28.48C28.3545 27.2853 28.0372 26.4267 27.4025 25.904C26.8052 25.3813 25.9652 25.0267 24.8825 24.84L11.6105 23.608C10.0425 23.4587 8.62382 23.0667 7.35449 22.432C6.12249 21.7973 5.05849 20.9947 4.16249 20.024C3.26649 19.016 2.57582 17.8587 2.09049 16.552C1.60516 15.208 1.36249 13.7707 1.36249 12.24Z" fill="white"/>
<path d="M113.583 126.667H138.222C139.992 126.667 140.877 126.667 141.525 126.952C144.392 128.216 143.11 131.4 142.628 133.689C142.542 134.1 142.26 134.45 141.865 134.637C140.226 135.415 139.078 136.89 138.777 138.605L137.098 148.165C136.359 152.372 136.107 158.384 132.421 161.347C129.716 163.5 125.819 163.5 118.025 163.5H111.976C104.181 163.5 100.284 163.5 97.5796 161.347C93.8932 158.384 93.6407 152.372 92.902 148.165L91.223 138.605C90.9218 136.89 89.7742 135.415 88.1356 134.637C87.7405 134.45 87.4587 134.1 87.3721 133.689C86.8899 131.4 85.6082 128.216 88.4748 126.952C89.1228 126.667 90.0079 126.667 91.778 126.667H102.25" stroke="#C6C6C6" stroke-width="4.25" stroke-linecap="round"/>
<path d="M120.667 138H109.333" stroke="#FB822F" stroke-width="4.25" stroke-linecap="round" stroke-linejoin="round"/>
<path d="M99.4167 135.167L109.333 112.5M123.5 112.5L130.583 126.667" stroke="#C6C6C6" stroke-width="4.25" stroke-linecap="round"/>
</svg>
